# xmcd
#
# Track frame offsets:
#	150
#	21359
#	37305
#	61467
#	78619
#	91921
#	105370
#	120126
#	134779
#	152347
#	164391
#	188511
#	206148
#	219770
#
# Disc length: 3228 seconds
#
# Revision: 0
# Processed by: cddbd v1.5.2PL0 Copyright (c) Steve Scherf et al.
# Submitted via: EasyCDDAExtractor 11.1.0.1
#
DISCID=b70c9a0e
DTITLE=Various Artist - mr music country
DYEAR=2008
DGENRE=country
TTITLE0=Alan Jackson - Nothing left to do
TTITLE1=Deke Dickerson - Misshapen hillbilly gal
TTITLE2=Miss Leslie - Between the whiskey and the wine
TTITLE3=Brooks and Dunn - Ballad of Jerry Jeff Walker
TTITLE4=The Mark Newton Band - Hillbilly hemingway
TTITLE5=Ed Bentley - Maybe he could miss her more
TTITLE6=Angel Band - I'll sing this song for you
TTITLE7=Darrell McCall - Dreams of a dreamer
TTITLE8=Vernon Oxford - There's an angel standing there
TTITLE9=Chris Sprague - Roll on big mama
TTITLE10=Fayssoux McLean - California earthquake
TTITLE11=T.Jae Christian - I don't care where you dig that hole
TTITLE12=Dave Caley - God's grand ole opry
TTITLE13=Crystal Sands - Under a Tennessee moon
EXTD=
EXTT0=
EXTT1=
EXTT2=
EXTT3=
EXTT4=
EXTT5=
EXTT6=
EXTT7=
EXTT8=
EXTT9=
EXTT10=
EXTT11=
EXTT12=
EXTT13=
PLAYORDER=
